# xmcd CD database file
#
# Track frame offsets:
#	150
#	13359
#	29914
#	49443
#	63988
#	76505
#	91644
#	106341
#	120039
#	131912
#	149946
#	168885
#
# Disc length: 2558 seconds
#
# Revision: 0
# Processed by: cddbd v1.5.1PL0 Copyright (c) Steve Scherf et al.
# Submitted via: CDex 1.50beta9
#
DISCID=a209fc0c
DTITLE=Buck Ramsey - Hittin' The Trail [CD 2)
DYEAR=2003
DGENRE=Country
TTITLE0=Wild Rippling Waters
TTITLE1=The Goodnight-Loving Trail
TTITLE2=Blue Mountain
TTITLE3=Hittin' The Trail Tonight
TTITLE4=The Tenderfoot
TTITLE5=Streets Of Laredo
TTITLE6=Palo Duro Farewell
TTITLE7=Cowboy Letter From Home
TTITLE8=The Cowboy's Soliloquy
TTITLE9=Doney Gal
TTITLE10=I'd Like To Be In Texas For The Roundup In The Spring
TTITLE11=Anthem
EXTD=YEAR: 2003
EXTT0=
EXTT1=
EXTT2=
EXTT3=
EXTT4=
EXTT5=
EXTT6=
EXTT7=
EXTT8=
EXTT9=
EXTT10=
EXTT11=
PLAYORDER=
